/* XPM */
static char * skulls_xpm[] = {
"70 35 659 2",
"  	c None",
". 	c #000000",
"+ 	c #161E2D",
"@ 	c #4B6191",
"# 	c #6582C3",
"$ 	c #7092DA",
"% 	c #779AE5",
"& 	c #7A9CE7",
"* 	c #7295E0",
"= 	c #6888CB",
"- 	c #687B9F",
"; 	c #3B444E",
"> 	c #3F3517",
", 	c #907240",
"' 	c #B68F53",
") 	c #CA9F5D",
"! 	c #D2A761",
"~ 	c #D3A761",
"{ 	c #B78F54",
"] 	c #957848",
"^ 	c #40321C",
"/ 	c #572D2D",
"( 	c #A8525E",
"_ 	c #CC6374",
": 	c #E16D80",
"< 	c #E87284",
"[ 	c #E67183",
"} 	c #DB6A7D",
"| 	c #C25D73",
"1 	c #8E4261",
"2 	c #2C101D",
"3 	c #1A202C",
"4 	c #5A75B0",
"5 	c #789DED",
"6 	c #7AA2F7",
"7 	c #7BA3F7",
"8 	c #94B2EB",
"9 	c #8FA1B9",
"0 	c #444D58",
"a 	c #735A31",
"b 	c #43361A",
"c 	c #AE8B4F",
"d 	c #DCAD66",
"e 	c #E0AF68",
"f 	c #E1B069",
"g 	c #E4B770",
"h 	c #B8945D",
"i 	c #463720",
"j 	c #642E36",
"k 	c #643135",
"l 	c #CC6373",
"m 	c #F5768D",
"n 	c #F7768E",
"o 	c #F67792",
"p 	c #E8709E",
"q 	c #AB4F7B",
"r 	c #2B0F1C",
"s 	c #3D4D70",
"t 	c #7397E4",
"u 	c #8CADF1",
"v 	c #ABC0DD",
"w 	c #748395",
"x 	c #010101",
"y 	c #D8AA64",
"z 	c #E7B970",
"A 	c #E5B975",
"B 	c #866B42",
"C 	c #E87084",
"D 	c #F3758B",
"E 	c #F376A1",
"F 	c #DE69A0",
"G 	c #6D304D",
"H 	c #445986",
"I 	c #7BA0F1",
"J 	c #AFC4E1",
"K 	c #8696AB",
"L 	c #030405",
"M 	c #B28C51",
"N 	c #EEC079",
"O 	c #9C7D4E",
"P 	c #DC6B7D",
"Q 	c #F376A2",
"R 	c #EA6FAA",
"S 	c #803A5B",
"T 	c #3E4E71",
"U 	c #95B2EE",
"V 	c #B0C5E0",
"W 	c #7E8EA2",
"X 	c #352B12",
"Y 	c #D3A661",
"Z 	c #EABC74",
"` 	c #8E7246",
" .	c #642F36",
"..	c #F2758B",
"+.	c #F7768F",
"@.	c #F274A8",
"#.	c #6E314E",
"$.	c #1D232F",
"%.	c #7498E5",
"&.	c #7BA2F7",
"*.	c #A6BEE6",
"=.	c #AFC4DF",
"-.	c #5B6675",
";.	c #876C3B",
">.	c #E1B169",
",.	c #EEC078",
"'.	c #E8BC76",
").	c #574529",
"!.	c #B55966",
"~.	c #F67694",
"{.	c #F073AD",
"].	c #DE69A1",
"^.	c #2E111F",
"/.	c #5C77B2",
"(.	c #7AA1F4",
"_.	c #6E91DD",
":.	c #79A0F4",
"<.	c #97B4F8",
"[.	c #A3BBF8",
"}.	c #90AFF7",
"|.	c #89ABF2",
"1.	c #A1B5CD",
"2.	c #0C0E12",
"3.	c #0E0B03",
"4.	c #CEA35F",
"5.	c #DAAA65",
"6.	c #C99D5C",
"7.	c #CB9F5E",
"8.	c #E7C390",
"9.	c #E7C493",
"0.	c #E2B576",
"a.	c #E7B870",
"b.	c #EFC17A",
"c.	c #C6A064",
"d.	c #442321",
"e.	c #F1748A",
"f.	c #EB7187",
"g.	c #DD6A7E",
"h.	c #E46E82",
"i.	c #F77B90",
"j.	c #F99EAA",
"k.	c #F99FAA",
"l.	c #F77C90",
"m.	c #F072AE",
"n.	c #AD507C",
"o.	c #1E2433",
"p.	c #779DEF",
"q.	c #799BE6",
"r.	c #7499E9",
"s.	c #E0E7FC",
"t.	c #FFFFFF",
"u.	c #C9D6FA",
"v.	c #A7BFE5",
"w.	c #677484",
"x.	c #9B7C45",
"y.	c #C29759",
"z.	c #4A381D",
"A.	c #FCF9F6",
"B.	c #E9C9A5",
"C.	c #EEC179",
"D.	c #634F2F",
"E.	c #C76170",
"F.	c #B75668",
"G.	c #854548",
"H.	c #F88C9B",
"I.	c #F9909B",
"J.	c #F67794",
"K.	c #E76EA8",
"L.	c #321221",
"M.	c #4F6596",
"N.	c #7B9DE8",
"O.	c #363F51",
"P.	c #373F52",
"Q.	c #769BEB",
"R.	c #D8E1FB",
"S.	c #F5F8FD",
"T.	c #C1D0F9",
"U.	c #96B3ED",
"V.	c #95A7BE",
"W.	c #584823",
"X.	c #C69B5B",
"Y.	c #50441F",
"Z.	c #69562C",
"`.	c #FBF4E7",
" +	c #FDFAEF",
".+	c #E8C79D",
"++	c #B08E59",
"@+	c #914650",
"#+	c #BF5C6C",
"$+	c #552F2B",
"%+	c #965051",
"&+	c #F88A99",
"*+	c #FFF4F1",
"=+	c #FFF4F2",
"-+	c #F88D99",
";+	c #F174A9",
">+	c #914268",
",+	c #6584C6",
"'+	c #88AAF2",
")+	c #ACC0DB",
"!+	c #13161B",
"~+	c #D5A962",
"{+	c #D8AE6E",
"]+	c #472423",
"^+	c #F6768D",
"/+	c #F375A1",
"(+	c #C15A8B",
"_+	c #7194DE",
":+	c #7EA4F6",
"<+	c #48515D",
"[+	c #C39959",
"}+	c #E4B56D",
"|+	c #EABD77",
"1+	c #171007",
"2+	c #040201",
"3+	c #EE7388",
"4+	c #F4769C",
"5+	c #D8669C",
"6+	c #7EA0EB",
"7+	c #7193DC",
"8+	c #516798",
"9+	c #3D4C6D",
"0+	c #475981",
"a+	c #6380C0",
"b+	c #7AA1F5",
"c+	c #7092D9",
"d+	c #506595",
"e+	c #3C4B6D",
"f+	c #475A84",
"g+	c #6381C3",
"h+	c #7BA2F5",
"i+	c #AEC4E1",
"j+	c #5B6776",
"k+	c #66522B",
"l+	c #64502A",
"m+	c #816738",
"n+	c #BB9455",
"o+	c #806738",
"p+	c #826839",
"q+	c #BE9657",
"r+	c #E3B26B",
"s+	c #3B2E1A",
"t+	c #763B3F",
"u+	c #6E373B",
"v+	c #964A53",
"w+	c #DA6B7C",
"x+	c #F5768C",
"y+	c #C15E6D",
"z+	c #834147",
"A+	c #6F383C",
"B+	c #994B55",
"C+	c #F57799",
"D+	c #E56DA6",
"E+	c #7EA2F0",
"F+	c #6683C2",
"G+	c #121416",
"H+	c #415581",
"I+	c #7AA0F2",
"J+	c #6681BD",
"K+	c #050812",
"L+	c #455B8A",
"M+	c #5D6877",
"N+	c #947742",
"O+	c #957842",
"P+	c #9B7D45",
"Q+	c #E3B36B",
"R+	c #44361F",
"S+	c #110505",
"T+	c #BE5F6B",
"U+	c #823D48",
"V+	c #180D07",
"W+	c #C3606E",
"X+	c #F57899",
"Y+	c #E86EA8",
"Z+	c #7498E4",
"`+	c #121721",
" @	c #3F3E41",
".@	c #57575A",
"+@	c #3D3D3F",
"@@	c #0D0C0D",
"#@	c #5C77B0",
"$@	c #7496E1",
"%@	c #0E1016",
"&@	c #414143",
"*@	c #58575A",
"=@	c #3C3B3D",
"-@	c #0B0A0B",
";@	c #647EB6",
">@	c #525D6A",
",@	c #424144",
"'@	c #575659",
")@	c #353436",
"!@	c #040404",
"~@	c #BA9355",
"{@	c #080809",
"]@	c #49494C",
"^@	c #565659",
"/@	c #333234",
"(@	c #030303",
"_@	c #C39D5C",
":@	c #EEC07A",
"<@	c #251C0E",
"[@	c #4C4B4E",
"}@	c #545357",
"|@	c #2C2C2E",
"1@	c #180B08",
"2@	c #E26E81",
"3@	c #B15663",
"4@	c #171617",
"5@	c #4F4E51",
"6@	c #535256",
"7@	c #2A2A2C",
"8@	c #230F0F",
"9@	c #E36F91",
"0@	c #6C8CD1",
"a@	c #5D78B3",
"b@	c #373639",
"c@	c #68676B",
"d@	c #5D5C60",
"e@	c #3B3A3D",
"f@	c #303A52",
"g@	c #5973AB",
"h@	c #3B3B3D",
"i@	c #5C5B5E",
"j@	c #39383B",
"k@	c #3F495B",
"l@	c #B0C4DF",
"m@	c #2E353D",
"n@	c #5E5D61",
"o@	c #323134",
"p@	c #7E6537",
"q@	c #7E6437",
"r@	c #4A494C",
"s@	c #565559",
"t@	c #302F31",
"u@	c #8D7244",
"v@	c #E0B572",
"w@	c #030201",
"x@	c #0A0A0B",
"y@	c #666569",
"z@	c #525154",
"A@	c #282729",
"B@	c #AC5461",
"C@	c #542A2B",
"D@	c #565558",
"E@	c #504F52",
"F@	c #242425",
"G@	c #B0557C",
"H@	c #CB6093",
"I@	c #5B75AE",
"J@	c #4E69A2",
"K@	c #626164",
"L@	c #464548",
"M@	c #06070C",
"N@	c #7FA4F4",
"O@	c #4A6296",
"P@	c #4E4D50",
"Q@	c #616063",
"R@	c #434245",
"S@	c #20252B",
"T@	c #AEC3DE",
"U@	c #A0B3CC",
"V@	c #121213",
"W@	c #67666A",
"X@	c #5C5C5F",
"Y@	c #3E3D40",
"Z@	c #5D4D26",
"`@	c #5A595D",
" #	c #5C5B5F",
".#	c #715A37",
"+#	c #C39D63",
"@#	c #2D2D2F",
"##	c #57565A",
"$#	c #964754",
"%#	c #F5798C",
"&#	c #0D0404",
"*#	c #656468",
"=#	c #333335",
"-#	c #9D4871",
";#	c #AA4F7A",
">#	c #374562",
",#	c #7BA3F6",
"'#	c #5D78B4",
")#	c #373638",
"!#	c #303B53",
"~#	c #434C57",
"{#	c #7E8EA1",
"]#	c #8D7146",
"^#	c #8C7045",
"/#	c #444446",
"(#	c #272729",
"_#	c #AF517E",
":#	c #EF72AE",
"<#	c #602A44",
"[#	c #6B8BD2",
"}#	c #121722",
"|#	c #7497E1",
"1#	c #0E1116",
"2#	c #8292A6",
"3#	c #ADC1DC",
"4#	c #39404A",
"5#	c #050506",
"6#	c #47474A",
"7#	c #49484B",
"8#	c #CAA366",
"9#	c #DFB472",
"0#	c #1D150A",
"a#	c #131314",
"b#	c #2C2B2D",
"c#	c #190B08",
"d#	c #B15763",
"e#	c #161617",
"f#	c #210A15",
"g#	c #DF69A1",
"h#	c #CC6093",
"i#	c #3F4F72",
"j#	c #7BA2F6",
"k#	c #6683C3",
"l#	c #425681",
"m#	c #7AA0F3",
"n#	c #7296E2",
"o#	c #637CB5",
"p#	c #050912",
"q#	c #596780",
"r#	c #AEC3DD",
"s#	c #8595AA",
"t#	c #957742",
"u#	c #BC9555",
"v#	c #BB9555",
"w#	c #A1824F",
"x#	c #97794B",
"y#	c #B75C66",
"z#	c #823E48",
"A#	c #BE5A86",
"B#	c #6F314F",
"C#	c #131928",
"D#	c #6888CC",
"E#	c #7293DC",
"F#	c #3E4C6D",
"G#	c #6381C0",
"H#	c #79A1F5",
"I#	c #3E4F75",
"J#	c #191B20",
"K#	c #7496DF",
"L#	c #7091DA",
"M#	c #6382C3",
"N#	c #7CA3F5",
"O#	c #A5B9D2",
"P#	c #4B5461",
"Q#	c #473E1A",
"R#	c #836839",
"S#	c #64512A",
"T#	c #BB9456",
"U#	c #493B1C",
"V#	c #483C1C",
"W#	c #D5AC6C",
"X#	c #493921",
"Y#	c #693737",
"Z#	c #864249",
"`#	c #6F373B",
" $	c #974A53",
".$	c #E06E7F",
"+$	c #24130D",
"@$	c #763940",
"#$	c #F5758D",
"$$	c #DC6C7D",
"%$	c #C65D8F",
"&$	c #260D19",
"*$	c #5D79B6",
"=$	c #5F7AB6",
"-$	c #3C4C6E",
";$	c #A3B7D0",
">$	c #13171B",
",$	c #050501",
"'$	c #D2A561",
")$	c #8A6F3D",
"!$	c #8A703C",
"~$	c #CAA266",
"{$	c #452122",
"]$	c #F5758C",
"^$	c #F4768C",
"/$	c #70373C",
"($	c #B75A67",
"_$	c #F375A2",
":$	c #B1527F",
"<$	c #131A2A",
"[$	c #0F0F10",
"}$	c #5F79B1",
"|$	c #545F6D",
"1$	c #BC9556",
"2$	c #000100",
"3$	c #080808",
"4$	c #E3B36C",
"5$	c #2F2514",
"6$	c #E57083",
"7$	c #B35964",
"8$	c #2A1213",
"9$	c #F5769A",
"0$	c #E06AA2",
"a$	c #799DEA",
"b$	c #7AA1F6",
"c$	c #3E4F76",
"d$	c #3A393C",
"e$	c #555458",
"f$	c #14171E",
"g$	c #586371",
"h$	c #BA9455",
"i$	c #483A1C",
"j$	c #473A1C",
"k$	c #372B18",
"l$	c #E36F82",
"m$	c #E06E80",
"n$	c #21100C",
"o$	c #000001",
"p$	c #763A40",
"q$	c #F5779A",
"r$	c #E36CA5",
"s$	c #6683C1",
"t$	c #779FF2",
"u$	c #010000",
"v$	c #060506",
"w$	c #6783BF",
"x$	c #86A9F3",
"y$	c #A8BCD6",
"z$	c #C59B5B",
"A$	c #2D2C2E",
"B$	c #E6B76F",
"C$	c #D3AA6B",
"D$	c #020101",
"E$	c #321917",
"F$	c #F3758C",
"G$	c #C0606C",
"H$	c #F2738B",
"I$	c #F376A0",
"J$	c #BC5888",
"K$	c #222B41",
"L$	c #7092DB",
"M$	c #A1BBE8",
"N$	c #AABFD9",
"O$	c #5D6978",
"P$	c #705A30",
"Q$	c #EDBF77",
"R$	c #624E2E",
"S$	c #A3505A",
"T$	c #F173AC",
"U$	c #D5659A",
"V$	c #3F192B",
"W$	c #0D1119",
"X$	c #495C87",
"Y$	c #566EA3",
"Z$	c #7493D7",
"`$	c #6787CD",
" %	c #6687CD",
".%	c #7599E6",
"+%	c #789EEF",
"@%	c #5E74A1",
"#%	c #6C7A8B",
"$%	c #2F363F",
"%%	c #372E13",
"&%	c #CDA25E",
"*%	c #D8A964",
"=%	c #BA9255",
"-%	c #CFA45F",
";%	c #9A7B49",
">%	c #2D2212",
",%	c #5E2C32",
"'%	c #E77084",
")%	c #CD6275",
"!%	c #D86C7B",
"~%	c #A14C6A",
"{%	c #843C5E",
"]%	c #17060E",
"^%	c #6E86BC",
"/%	c #9EB9E9",
"(%	c #A1B7D6",
"_%	c #CAA05D",
":%	c #E5B56E",
"<%	c #CBA366",
"[%	c #EA7186",
"}%	c #F5779B",
"|%	c #F275A5",
"1%	c #B85784",
"2%	c #8EAEF0",
"3%	c #A6BAD3",
"4%	c #E8B972",
"5%	c #CBA467",
"6%	c #F376A4",
"7%	c #B85685",
"8%	c #759BED",
"9%	c #6283C8",
"0%	c #6C8CD0",
"a%	c #6688CF",
"b%	c #799DED",
"c%	c #7094E1",
"d%	c #859FD3",
"e%	c #B28B51",
"f%	c #D5A762",
"g%	c #CFA260",
"h%	c #B58D53",
"i%	c #C59A5A",
"j%	c #DEAE67",
"k%	c #B68E53",
"l%	c #D8AE6A",
"m%	c #C85F72",
"n%	c #F2748B",
"o%	c #DC6A7D",
"p%	c #E26C81",
"q%	c #ED7388",
"r%	c #CF6376",
"s%	c #D16676",
"t%	c #E872A0",
"u%	c #6C90DB",
"v%	c #4B5465",
"w%	c #2F4064",
"x%	c #7595DA",
"y%	c #5A77B6",
"z%	c #728091",
"A%	c #C09958",
"B%	c #AD884F",
"C%	c #866B3B",
"D%	c #D9AB65",
"E%	c #0F0E03",
"F%	c #B9965C",
"G%	c #010100",
"H%	c #E97086",
"I%	c #A05059",
"J%	c #DB6E7C",
"K%	c #642D36",
"L%	c #6B3F35",
"M%	c #D66997",
"N%	c #6C82B2",
"O%	c #7D9FE9",
"P%	c #6E8DCF",
"Q%	c #48505F",
"R%	c #303E5E",
"S%	c #7691CD",
"T%	c #5B75AC",
"U%	c #6C7989",
"V%	c #A7BBD4",
"W%	c #9DB0C8",
"X%	c #B89553",
"Y%	c #D7AB62",
"Z%	c #A6854A",
"`%	c #806837",
" &	c #D0A75F",
".&	c #0E0C02",
"+&	c #AF8E57",
"@&	c #E3B773",
"#&	c #C19B61",
"$&	c #DE6F7E",
"%&	c #EB7586",
"&&	c #984F53",
"*&	c #AE5661",
"=&	c #D06C75",
"-&	c #5F2C33",
";&	c #653C32",
">&	c #CB638F",
",&	c #E46CA5",
"'&	c #AE517E",
"                      . . . . . . .                           . . . . . . . .                           . . . . . . .                       ",
"                . . . . . . . . . . . .                   . . . . . . . . . . . .                   . . . . . . . . . . . .                 ",
"            . . . + @ # $ % & * = - ; . . .           . . . > , ' ) ! ~ ) { ] ^ . . .           . . . / ( _ : < [ } | 1 2 . . .             ",
"          . . 3 4 5 6 6 6 6 6 6 6 7 8 9 0 . .         a b c d e e e e e e e f g h i . .         j k l m n n n n n n n o p q r . .           ",
"        . . s t 6 6 6 6 6 6 6 6 6 6 6 u v w x .     e y y e e e e e e e e e e e z A B . .     n C D n n n n n n n n n n n E F G . .         ",
"      . . H I 6 6 6 6 6 6 6 6 6 6 6 6 6 u J K L . M e e e e e e e e e e e e e e e z N O . . P n n n n n n n n n n n n n n n Q R S . .       ",
"    . . T I 6 6 6 6 6 6 6 6 6 6 6 6 6 6 6 U V W . X Y e e e e e e e e e e e e e e e Z N ` .  ...n n n n n n n n n n n n n n +.@.R #.. .     ",
"    . $.%.6 6 6 6 6 6 6 6 6 6 6 6 6 6 6 6 &.*.=.-.. ;.e e e e e e e e e e e e e e e >.,.'.).. !.n n n n n n n n n n n n n n n ~.{.].^..     ",
"  . . /.6 6 6 6 6 6 (._._.:.6 <.[.}.6 6 6 6 |.V 1.2.3.4.e e e 5.6.7.e e 8.9.0.e e e e a.b.c.. d.e.n n n f.g.h.n i.j.k.l.n n n n Q m.n.. .   ",
"  . o.p.6 6 6 6 6 6 q.. x r.6 s.t.u.6 6 6 6 6 v.V w.. x.e e e y.. z.e e A.t.B.e e e e >.C.N D.. E.n n n F.. G.n H.t.t.I.n n n n J.m.K.L..   ",
". . M.6 6 6 6 6 6 6 N.O.P.Q.6 R.S.T.6 6 6 6 6 U.V V.. W.e e e X.Y.Z.e e `. +.+e e e e e Z b.++. @+n n n #+$+%+n &+*+=+-+n n n n n ;+m.>+. . ",
". . ,+6 6 6 6 6 6 6 6 6 6 6 6 6 6 6 6 6 6 6 6 '+V )+!+. ~+e e e e e e e e e e e e e e e a.b.{+. ]+^+n n n n n n n n n n n n n n n /+m.(+. . ",
". . _+6 6 6 6 6 6 6 6 6 6 6 6 6 6 6 6 6 6 6 6 :+V V <+. [+e e e e e e e e e e e e e e e }+b.|+1+2+3+n n n n n n n n n n n n n n n 4+m.5+. . ",
". . 6+6 6 6 7+8+9+0+a+b+6 6 6 6 6 c+d+e+f+g+h+6 i+V j+. k+l+m+n+e e e e e e n+o+l+p+q+e r+b.b.s+. t+u+v+w+n n n n n x+y+z+A+B+P n C+m.D+. . ",
". . E+6 6 F+G+. . . . H+I+6 6 6 J+K+. . . . L+:.i+V M+. . . . . N+e e e e O+. . . . . P+Q+b.b.R+. . . . S+T+n n n D U+. . . . V+W+X+m.Y+. . ",
". . Z+6 %.`+.  @.@+@@@. #@6 6 $@%@. &@*@=@-@. ;@J V >@. ,@'@)@!@. ~@e e ~@. {@]@^@/@(@. _@b.:@<@. [@}@|@. 1@2@n n 3@. 4@5@6@7@. 8@9@m.].. . ",
". . 0@6 a@. b@c@c@d@e@. f@6 6 g@. h@c@c@i@j@. k@V l@m@. n@c@*@o@. p@e e q@. r@c@c@s@t@. u@b.v@w@x@y@c@z@A@. B@n n C@. D@c@c@E@F@. G@m.H@. . ",
". . I@6 J@. [@c@c@K@L@. M@N@6 O@. P@c@c@Q@R@. S@T@U@. V@W@c@X@Y@. Z@e e Z@. `@c@c@ #e@. .#b.+#. @#c@c@##)@. $#n %#&#. *#c@c@D@=#. -#m.;#. . ",
"  . >#,#'#. )#c@c@d@e@. !#6 6 g@. h@c@c@i@j@. ~#V {#. =#c@c@*@o@. p@e e p@. r@c@c@s@t@. ]#b.^#. /#c@c@z@(#. B@n n C@. D@c@c@E@F@. _#:#<#.   ",
"  . . [#%.}#.  @.@+@@@. #@6 6 |#1#. &@.@h@-@. 2#3#4#. 5#6#'@)@!@. ~@e e ~@. {@7#^@/@(@. 8#9#0#. a#P@}@b#. c#2@n n d#. e#5@6@7@. f#g#h#. .   ",
"  . . i#j#k#G+. . . . l#m#n#o#6 J+p#. . . . q#r#s#. . . . . . . t#e u#v#e t#. . . . . w#b.x#. . . . . . S+T+n y#2@D z#. . . . V+A#:#B#. .   ",
"  . C#D#6 6 E#8+F#0+G#b+H#I#J#K#6 L#M.9+f+M#N#*.O#P#. Q#R#S#m+T#e y U#V#y e n+m+S#R#q+>.,.W#X#. Y#Z#`# $w+n .$+$@$#$x+y+z+A+B+$$~.{.%$&$.   ",
". . *$6 6 6 6 6 6 6 6 6 =$. . -$(.6 6 6 6 6 6 |.V ;$>$,$'$e e e e )$. . !$e e e e e e e a.b.~$. {$]$n n n ^$/$. . ($n n n n n n n _$m.:$. . ",
". . q.6 6 6 6 6 6 6 6 n#<$. [$. }$6 6 6 6 6 6 7 J V |$. 1$e e e 1$2$3$3$2$u#e e e e e e 4$b.N 5$. 6$n n n 7$. [$. 8$2@n n n n n n 9$m.0$. . ",
". . a$6 6 6 6 6 6 6 b$c$. d$e$. f$K#6 6 6 6 6 6 i+V g$. h$e e y i$. 7#7#. j$y e e e e e Q+b.b.k$. l$n n m$n$o$e$d$. p$^+n n n n n q$m.r$. . ",
". . s$6 6 6 6 6 6 6 t$u$. A@t@v$. w$6 6 6 6 6 x$V y$S@. 4.e e z$. . A$A$. . z$e e e e e B$b.C$D$E$F$n n G$. v$t@A@. 2$H$n n n n n I$m.J$. . ",
"  . K$L$6 6 6 6 6 6 t$u$. . . . . w$6 6 6 6 6 M$N$O$. P$e e e z$. . . . . . z$e e e e f Q$v@R$. S$n n n G$. . . . . 2$H$n n n n o T$U$V$.   ",
"  . . W$X$Y$Z$6 6 6 H#`$ % % % % %.%6 6 6 +%@%#%$%. %%&%e e e *%=%=%=%=%=%=%*%e e e -%;%` >%. ,%3+n n n '%)%)%)%)%)%)%#$n n n !%~%{%]%. .   ",
"    . . . . ^%6 6 6 6 6 6 6 6 6 6 6 6 x$/%(%x . . . _%e e e e e e e e e e e e e :%Z <%. . . . [%n n n n n n n n n n n n n }%|%1%. . . .     ",
"        . . ^%6 6 6 6 6 6 6 6 6 6 6 6 2%V 3%x .     e e e e e e e e e e e e e e 4%b.5%. .     n n n n n n n n n n n n n n 6%m.7%. .         ",
"        . . ^%6 8%9%0%6 6 a%9%b%6 c%9%d%V 3%x .     e%f%e g%h%i%e j%k%k%j%e i%h%l%b.5%. .     m%n%n o%m%p%n q%m%r%n n s%m%t%m.7%. .         ",
"        . . ^%6 u%. v%6 6 w%. x%6 y%. z%V 3%x .   . . A%e B%. C%e D%E%E%D%e C%. F%b.5%. .   . G%H%n I%. F.n J%. K%n n L%. M%m.7%. .         ",
"        . . N%O%P%. Q%O%O%R%. S%O%T%. U%V%W%x .   . . X%Y%Z%. `%Y% &.&.& &Y%`%. +&@&#&. .   . G%$&%&&&. *&%&=&. -&%&%&;&. >&,&'&. .         ",
"        . . . . . . . . . . . . . . . . . . . .   . . . . . . . . . . . . . . . . . . . .   . . . . . . . . . . . . . . . . . . . .         ",
"        . . . . . . . . . . . . . . . . . . . .   . . . . . . . . . . . . . . . . . . . .   . . . . . . . . . . . . . . . . . . . .         "};
